<?xml version="1.0" encoding="utf-8"?>
<!-- Generator: Adobe Illustrator 22.0.0, SVG Export Plug-In . SVG Version: 6.00 Build 0)  -->
<svg version="1.1" id="Layer_1" xmlns="http://www.w3.org/2000/svg" xmlns:xlink="http://www.w3.org/1999/xlink" x="0px" y="0px"
	 viewBox="40 150 750 300" style="enable-background:new 40 150 740 300;" xml:space="preserve">
<style type="text/css">
	.st0{fill:#ED1F24;}
	.st1{fill:#FFFFFF;}
	.st2{fill:none;stroke:#ED1C24;stroke-width:6.2896;stroke-miterlimit:10;}
</style>
<g>
	<path class="st0" d="M260.3,239.9l21.5,75.5l19.7-67.9c1.2-4.9,4.6-7.5,10.2-7.5h14.8L292,341h-19.7l-34.8-101h22.8V239.9z"/>
	<path class="st0" d="M346.8,239.9h29c15.4,0,27,4.1,34.5,12.5c7.8,8.7,11.6,21.5,11.6,38c0,9.3-1.5,17.4-4.4,24.4
		s-7,12.8-12.2,17.1c-4.1,3.2-8.7,5.5-13.6,7s-12.2,2-21.5,2h-34v-90.3C336.3,243.6,339.8,240.2,346.8,239.9z M394.1,315.1
		c4.4-4.9,6.7-13.4,6.7-24.7s-2-19.4-6.1-24.7c-4.1-5.5-10.5-8.1-18.9-8.1h-19.2v65h16.5C382.8,322.6,389.8,320,394.1,315.1z"/>
	<path class="st0" d="M442,239.9h10.2v101h-20.6v-90.3C431.6,243.4,435,239.9,442,239.9z"/>
</g>
<g>
	<path class="st1" d="M539,332.8c-7.5,6.4-17.7,9.6-30.8,9.6c-14.8,0-26.4-4.4-34.3-13.4c-8.1-9.3-12.2-22.1-12.2-38.6
		c0-16.8,4.1-29.6,12.5-38.6c8.1-9,20-13.6,35.7-13.6c12.5,0,22.4,3.2,29.9,9.3c7.3,6.4,11.3,15.1,12.2,26.1h-12.5
		c-4.4,0-7.5-2-9.6-6.1c-3.5-7.3-10.2-11-20-11c-8.7,0-15.7,2.9-20.6,8.7c-4.6,5.8-7,14.2-7,25.3c0,10.7,2.3,19.2,7,25
		s11.3,8.7,20,8.7c6.1,0,11-1.5,15.1-4.6c3.8-3.2,6.4-7.8,7.5-13.6h20C551.2,317.4,546.8,326.4,539,332.8z"/>
	<path class="st1" d="M617.9,336.2c-7,4.1-14.8,6.1-23.2,6.1c-8.1,0-15.7-2.3-22.4-6.7c-6.7-4.4-10.2-13.1-10.2-26.1v-47.3h19.7
		v51.4c0,8.7,4.4,13.1,13.4,13.1s13.4-4.4,13.4-13.1v-41.5c-0.3-6.7,2.9-9.9,9.6-9.9h10.2v47.3C628.4,323.2,624.9,331.9,617.9,336.2
		z"/>
	<path class="st1" d="M679.2,261.1c20.9,0.9,31.4,14.5,31.4,41.2c0,26.1-12.2,39.5-36.6,39.8c-24.7,0.3-36.9-11.6-36.9-35.1v-67.1
		h9.9c6.7,0,9.9,3.2,9.9,9.9v23.5C661.8,265.1,669.3,261.1,679.2,261.1z M673.7,278.8c-10.7,0-16.3,7.5-16.8,22.6
		c-0.3,16,5.2,23.8,16.5,23.8s16.8-7.8,16.8-23.8C689.9,286.3,684.4,278.8,673.7,278.8z"/>
	<path class="st1" d="M777.3,336.2c-6.4,4.4-13.9,6.4-22.6,6.4c-23.8-0.9-35.7-14.5-35.7-41.2s11.9-40.1,36-40.3
		c25,0,36.6,15.4,35.1,46.2h-50.8c0.9,11.9,6.1,18,15.7,18c4.6,0,9-1.7,12.8-5.5c1.7-2,4.1-2.9,6.7-2.9H789
		C786.6,325.8,782.8,332.2,777.3,336.2z M754.6,277.3c-8.4,0-13.6,5.2-15.1,15.7h29.6C768,282.5,763.1,277.3,754.6,277.3z"/>
</g>
<g>
	<polygon class="st2" points="129.6,337.5 170.2,361 170.2,361 210.7,337.6 210.7,337.5 210.7,290.7 210.7,243.8 170.2,220.4 
		129.6,243.8 129.6,243.8 89,220.4 48.4,243.8 48.4,290.7 48.4,337.5 48.4,337.6 89,361 	"/>
	<path class="st2" d="M89,314.1L89,314.1L89,314.1z"/>
	<polyline class="st2" points="129.6,243.8 89,267.3 89,267.3 89,267.3 129.6,243.8 	"/>
	<polyline class="st2" points="129.6,337.5 129.6,290.7 129.6,290.7 89,314.1 89,314.1 89,314.1 89,361 	"/>
	<polyline class="st2" points="129.6,243.8 170.2,267.3 210.7,243.8 	"/>
	<polyline class="st2" points="210.7,243.8 170.2,267.3 170.2,267.3 210.7,290.7 	"/>
	<polyline class="st2" points="210.7,290.7 170.2,314.1 170.2,314.1 170.2,361 	"/>
	<polyline class="st2" points="210.7,290.7 170.2,267.3 129.6,290.7 170.2,314.1 210.7,290.7 	"/>
	<polyline class="st2" points="129.6,243.8 129.6,290.7 170.2,267.3 170.2,267.3 129.6,243.8 	"/>
	<polyline class="st2" points="89,361 89,314.1 89,314.1 48.4,290.7 	"/>
	<polyline class="st2" points="48.4,290.7 89,267.3 89,267.3 48.4,243.8 	"/>
	<polyline class="st2" points="48.4,243.8 89,267.3 129.6,243.8 	"/>
	<polyline class="st2" points="129.6,243.8 89,267.3 129.6,290.7 129.6,243.8 	"/>
	<polyline class="st2" points="48.4,290.7 89,314.1 89,314.1 129.6,290.7 89,267.3 89,267.3 48.4,290.7 	"/>
</g>
</svg>
